# xmcd CD database file
#
# Track frame offsets:
#	150
#	43662
#	69375
#	113903
#	137180
#	190232
#	221812
#	251032
#	301495
#
# Disc length: 4190 seconds
#
# Revision: 0
# Processed by: cddbd v1.5.2PL0 Copyright (c) Steve Scherf et al.
# Submitted via: CDex 1.70beta1
#
DISCID=8a105c09
DTITLE=Chris Potter - Underground
DYEAR=2006
DGENRE=Jazz
TTITLE0=Chris Potter - Next Best Western
TTITLE1=Chris Potter - Morning Bell
TTITLE2=Chris Potter - Nudnik
TTITLE3=Chris Potter - Lotus Blossom
TTITLE4=Chris Potter - Big Top
TTITLE5=Chris Potter - The Wheel
TTITLE6=Chris Potter - Celestial Nomad
TTITLE7=Chris Potter - Underground
TTITLE8=Chris Potter - Yesterday
EXTD=YEAR: 2006
EXTT0=
EXTT1=
EXTT2=
EXTT3=
EXTT4=
EXTT5=
EXTT6=
EXTT7=
EXTT8=
PLAYORDER=
